<svg width="24" height="24" viewBox="0 0 24 24" fill="none" xmlns="http://www.w3.org/2000/svg">
<path d="M12 -1.04907e-06C15.2053 -7.6886e-07 18.2188 1.24823 20.4853 3.51471C22.7518 5.78119 24 8.79474 24 12C24 15.2053 22.7518 18.2188 20.4853 20.4853C18.2188 22.7518 15.2053 24 12 24C8.79474 24 5.78119 22.7518 3.51471 20.4853C1.24823 18.2188 7.6886e-07 15.2053 1.04907e-06 12C1.32929e-06 8.79474 1.24823 5.78119 3.51471 3.51471C5.78119 1.24823 8.79474 -1.32929e-06 12 -1.04907e-06ZM12 22.125C17.5829 22.125 22.125 17.5829 22.125 12C22.125 6.41711 17.5829 1.875 12 1.875C6.41712 1.875 1.875 6.41711 1.875 12C1.875 17.5829 6.41711 22.125 12 22.125ZM7.11163 12L13.5938 18.4821L14.9196 17.1562L9.76337 12L14.9196 6.84375L13.5938 5.51788L7.11163 12Z" fill="#00AFE8"/>
</svg>
