<svg width="15" height="24" viewBox="0 0 15 24" fill="none" xmlns="http://www.w3.org/2000/svg">
<path d="M7.37143 0.0205688C3.3068 0.0205688 0 3.32737 0 7.39199C0 8.49479 0.8972 9.39199 2 9.39199C3.1028 9.39199 4 8.49479 4 7.39199C4 5.53296 5.5124 4.02057 7.37143 4.02057C9.2304 4.02057 10.7429 5.53296 10.7429 7.39199C10.7429 9.26679 9.2304 10.792 7.37143 10.792C6.26863 10.792 5.37143 11.6892 5.37143 12.792V16.7223C5.37143 17.8251 6.26863 18.7223 7.37143 18.7223C8.47423 18.7223 9.37143 17.8251 9.37143 16.7224V14.5145C10.8157 14.1042 12.1189 13.2481 13.0783 12.0709C14.1517 10.754 14.7429 9.09233 14.7429 7.39199C14.7429 3.32737 11.4361 0.0205688 7.37143 0.0205688ZM8.6796 13.5098C8.41646 13.5665 8.22857 13.7992 8.22857 14.0684V16.7223C8.22857 17.1949 7.84406 17.5794 7.37143 17.5794C6.8988 17.5794 6.51429 17.1949 6.51429 16.7223V12.7919C6.51429 12.3193 6.8988 11.9348 7.37143 11.9348C9.86063 11.9348 11.8857 9.89685 11.8857 7.39193C11.8857 4.90274 9.86063 2.87765 7.37143 2.87765C4.88223 2.87765 2.85714 4.90279 2.85714 7.39193C2.85714 7.86456 2.47263 8.24908 2 8.24908C1.52737 8.24908 1.14286 7.86456 1.14286 7.39193C1.14286 3.95748 3.93697 1.16337 7.37143 1.16337C10.8059 1.16337 13.6 3.95748 13.6 7.39193C13.6 10.3223 11.5307 12.8952 8.6796 13.5098Z" fill="white"/>
<path d="M7.3714 19.7509C6.2686 19.7509 5.3714 20.6481 5.3714 21.7509V21.9795C5.3714 23.0823 6.2686 23.9795 7.3714 23.9795C8.4742 23.9795 9.3714 23.0822 9.3714 21.9795V21.7509C9.3714 20.6481 8.4742 19.7509 7.3714 19.7509ZM8.22854 21.9795C8.22854 22.4521 7.84403 22.8366 7.3714 22.8366C6.89877 22.8366 6.51426 22.4521 6.51426 21.9795V21.7509C6.51426 21.2783 6.89877 20.8938 7.3714 20.8938C7.84403 20.8938 8.22854 21.2783 8.22854 21.7509V21.9795Z" fill="white"/>
</svg>
