<svg width="63" height="50" viewBox="0 0 63 50" fill="none" xmlns="http://www.w3.org/2000/svg">
<g clip-path="url(#clip0)">
<path fill-rule="evenodd" clip-rule="evenodd" d="M25.9511 11.9625C26.1324 13.1891 26.4691 13.7035 26.4691 14.996C26.4691 15.2466 26.4561 15.5896 26.4561 16.0248C26.236 16.0776 26.0676 16.0907 25.9511 16.0907C25.8604 16.0907 25.7309 16.0776 25.5497 16.038C24.8892 14.1651 23.8014 12.7407 22.2993 11.7383C20.8101 10.7228 18.9453 10.2348 16.7439 10.2348C15.5655 10.2348 14.5813 10.3667 13.7914 10.6436C12.3669 11.1316 11.1108 11.8175 10.0489 12.6879C8.97411 13.5584 8.06764 14.6004 7.32951 15.8006C6.59138 17.014 5.99569 18.4648 5.56836 20.1926C5.14102 21.9072 4.92087 23.6613 4.92087 25.4418C4.92087 28.8446 5.43886 31.6671 6.46188 33.8961C7.4849 36.1119 8.89641 37.7077 10.6705 38.6574C12.4576 39.5938 14.2446 40.0686 16.0705 40.0686L17.1842 40.0554C18.4532 39.8971 19.3079 39.7389 19.7612 39.5938C20.9137 39.2641 21.859 38.8684 22.6101 38.4199C23.3612 37.9583 24.0863 37.3121 24.8115 36.4943C25.5238 35.6634 26.1453 34.6874 26.6374 33.5927L26.9353 33.5136C27 33.5136 27.1166 33.5532 27.2849 33.6455C27.272 34.0412 27.259 34.2786 27.2461 34.3973C26.5856 37.0878 26.0935 38.9211 25.7957 39.9103C25.5497 39.9763 25.2259 40.0686 24.8504 40.2005C22.9986 40.8336 20.5381 41.1633 17.4432 41.1633C14.9439 41.1633 13.0791 40.9918 11.836 40.6489C10.5928 40.306 9.259 39.7784 7.79569 39.0398C6.33238 38.3012 5.05037 37.3384 3.94965 36.1382C2.84893 34.9512 1.94246 33.4476 1.28202 31.6275C0.595693 29.7943 0.259003 27.8027 0.259003 25.6661C0.259003 23.6217 0.530945 21.8412 1.06188 20.3245C1.60577 18.7945 2.43454 17.2514 3.54821 15.6951C4.66188 14.1256 5.98274 12.8066 7.5108 11.7779C9.02591 10.736 10.7223 10.0106 12.5871 9.57531C13.895 9.28515 15.7468 9.15326 18.1554 9.15326C19.9036 9.15326 21.5482 9.39066 23.1022 9.85228C24.6302 10.3271 25.4331 11.5141 25.9511 11.9625Z" fill="#00386E"/>
<path fill-rule="evenodd" clip-rule="evenodd" d="M19.3338 9.98417L19.3079 9.60169C19.8259 8.94223 22.5453 9.17964 23.3871 9.17964C25.213 9.2192 27.2072 9.00818 28.9813 9.28515C29.0072 9.65445 28.9943 9.98417 28.9554 10.3535C28.0748 10.393 27.0518 10.3007 26.2101 10.5645C25.964 11.158 26.4043 11.6988 26.6115 12.2659L31.6489 25.5737C32.0633 26.6816 32.3353 27.3806 32.4648 27.6972C33.7468 30.6515 34.7439 33.7246 36.1166 36.6394C36.8288 35.4656 37.8648 33.4345 39.2504 30.5065L41.2058 25.7452L41.5036 25.8243L42.2547 27.1432L42.0345 27.5653L41.9309 27.3675C40.6878 29.4513 39.7166 31.8254 38.7324 34.0412L36.8806 37.8396C36.1166 39.4619 35.5079 40.583 35.0288 41.216L34.0187 41.2424C30.7813 33.1443 27.4014 25.1121 24.2417 16.9612C23.4648 15.1016 22.882 13.1628 22.105 11.2899C21.4964 10.2611 20.2921 10.393 19.3338 9.98417ZM47.8878 31.9968C48.5353 33.3817 49.1698 34.7666 49.6878 36.2042C50.6202 33.1971 51.9281 30.3218 53.0547 27.3806L54.8806 22.7117C56.0719 19.2429 57.5612 15.7083 58.3122 12.1076C58.4029 11.5669 58.623 11.1448 58.118 10.7228C57.3151 10.0237 55.1396 10.5117 55.3468 9.11369C56.3827 9.06094 57.3928 9.08731 58.4288 9.11369C59.9439 9.1005 61.472 9.03456 62.9741 9.14007C63 9.40385 62.9871 9.61488 62.9482 9.87866C62.0935 10.2216 60.7468 10.6304 60.1899 11.4745C60.0345 11.6988 59.7626 12.3055 59.3482 13.3078C58.4029 15.6027 57.7425 18.0427 56.823 20.3508C54.1036 27.2224 51.7468 34.239 49.1827 41.1633C48.8202 41.216 48.4964 41.216 48.1338 41.1897C47.0202 38.0638 45.5827 34.9908 44.1971 31.9968H47.8878Z" fill="#00386E"/>
<path fill-rule="evenodd" clip-rule="evenodd" d="M43.9899 29.9921C45.7381 21.4983 31.2475 19.0715 36.1813 10.6568C43.5108 4.55025 51.5137 16.3809 43.9899 29.9921Z" fill="#00ABE5" stroke="#00ABE5" stroke-width="0.216"/>
<path fill-rule="evenodd" clip-rule="evenodd" d="M44.5597 19.5859C45.246 16.2886 39.6259 15.3522 41.5424 12.0944C44.3655 9.72039 47.4734 14.297 44.5597 19.5859Z" fill="white" stroke="#00ABE5" stroke-width="0.216"/>
<path fill-rule="evenodd" clip-rule="evenodd" d="M5.5554 49.4988C5.07626 49.8153 4.46763 49.9868 3.76835 49.9868C2.82303 49.9868 2.0849 49.6571 1.55396 48.9844C1.07482 48.3645 0.828781 47.5732 0.828781 46.5972C0.828781 45.4629 1.11367 44.5397 1.70936 43.8275C2.33094 43.1021 3.18562 42.7196 4.28634 42.7196C4.68777 42.7196 5.07626 42.7723 5.4777 42.8779L5.6331 44.2627C5.21871 44.0517 4.77842 43.9462 4.33813 43.9462C3.6518 43.9462 3.13382 44.1968 2.78418 44.6848C2.46044 45.1332 2.30504 45.7135 2.30504 46.4257C2.30504 47.0984 2.44749 47.6259 2.70648 48.0348C3.01727 48.4964 3.49641 48.7338 4.13094 48.7338C4.61008 48.7338 5.12806 48.5492 5.67195 48.1799L5.5554 49.4988Z" fill="#00386E"/>
<path fill-rule="evenodd" clip-rule="evenodd" d="M6.7597 42.8911H8.46906C8.36546 44.1572 8.31366 45.7399 8.31366 47.626V48.7998H8.89639C9.58272 48.7998 10.2432 48.747 10.9295 48.6547L10.7223 49.8681H6.7597C6.8633 48.7602 6.9151 47.5996 6.9151 46.3598C6.9151 45.3574 6.8633 44.21 6.7597 42.8911Z" fill="#00386E"/>
<path fill-rule="evenodd" clip-rule="evenodd" d="M11.836 42.8911H15.7597L15.8763 44.0649C15.2935 43.9726 14.6978 43.933 14.0892 43.933H13.4029V45.6608H15.8763L15.682 46.7819C15.164 46.7159 14.6072 46.6895 14.0115 46.6895H13.4029V48.8525H13.9079C14.5683 48.8525 15.2547 48.7998 15.9281 48.6943L15.7209 49.8681H11.836C11.9396 48.7602 11.9914 47.5996 11.9914 46.3598C11.9914 45.3574 11.9396 44.1968 11.836 42.8911Z" fill="#00386E"/>
<path fill-rule="evenodd" clip-rule="evenodd" d="M19.7353 44.0649C19.7223 44.1177 19.6964 44.1572 19.6835 44.21V42.8779C20.0331 42.8911 20.3698 42.8779 20.6806 42.8647C21.2374 45.0541 22.0144 47.3886 23.0245 49.8681H21.3151C21.1986 49.2746 21.0302 48.6283 20.836 47.9821H19.6964V46.9401H20.577C20.2921 45.9641 20.0331 45.0145 19.7353 44.0649ZM19.6705 44.21V42.8779C19.3986 42.8779 19.1266 42.8647 18.8288 42.8647C18.6086 43.9198 18.272 45.1068 17.8187 46.4258C17.5468 47.1907 17.1065 48.3382 16.4978 49.8681H18.0777C18.2072 49.1823 18.3626 48.5624 18.5439 47.9821H19.6835V46.9401H18.8029C19.1266 45.8322 19.4245 44.9222 19.6705 44.21Z" fill="#00386E"/>
<path fill-rule="evenodd" clip-rule="evenodd" d="M26.3396 42.9042C26.8964 42.9438 27.3367 43.0229 27.6475 43.1285C28.3986 43.4054 28.7612 43.9594 28.7612 44.7771C28.7612 45.7267 28.2043 46.3202 27.0907 46.5444C27.5439 46.7159 27.9712 47.2039 28.4115 47.9953C28.7223 48.6283 29.0331 49.2482 29.3439 49.8681H27.6216C27.1684 48.6283 26.7799 47.7842 26.482 47.3886C26.4302 47.3226 26.3914 47.2699 26.3396 47.2171V46.0037C27.013 45.8718 27.3496 45.5157 27.3496 44.9354C27.3496 44.3551 27.013 44.0253 26.3396 43.933V42.9042ZM23.7885 49.8681H25.4719C25.3813 48.6943 25.3295 47.771 25.3295 47.0852V46.7687C25.718 46.7687 26.0676 46.9269 26.3396 47.2171V46.0037C26.1583 46.0301 25.9511 46.0565 25.718 46.0565C25.5367 46.0565 25.4072 46.0565 25.3295 46.0433C25.3295 45.4629 25.3425 44.7639 25.3554 43.933C25.5237 43.9198 25.718 43.9066 25.9381 43.9066C26.0806 43.9066 26.2101 43.9198 26.3266 43.933V42.9042C26.0806 42.8911 25.8086 42.8911 25.5108 42.8911H23.7755C23.8921 44.0913 23.9439 45.2519 23.9439 46.3598C23.9568 47.6391 23.8921 48.813 23.7885 49.8681Z" fill="#00386E"/>
<path fill-rule="evenodd" clip-rule="evenodd" d="M29.4345 42.8911H31.118C31.2604 44.0649 31.636 45.8454 32.2446 48.2195C32.918 45.9246 33.4101 44.1572 33.7209 42.8911H34.6662C34.9122 44.0781 35.3784 45.8322 36.0518 48.1931C36.5827 46.4126 36.9712 44.6452 37.2302 42.8911H38.7842C38.0331 45.0409 37.3727 47.3754 36.777 49.8681H35.3137C34.964 48.3909 34.5626 46.8874 34.0964 45.3574C33.6691 46.7819 33.2676 48.2854 32.8921 49.8681H31.4029C30.7943 47.1248 30.1338 44.7903 29.4345 42.8911Z" fill="#00386E"/>
<path fill-rule="evenodd" clip-rule="evenodd" d="M41.6719 44.0649C41.659 44.1177 41.6331 44.1572 41.6201 44.21V42.8779C41.9698 42.8911 42.3065 42.8779 42.6173 42.8647C43.1741 45.0541 43.9511 47.3886 44.9611 49.8681H43.2518C43.1352 49.2746 42.9669 48.6283 42.7727 47.9821H41.6331V46.9401H42.5137C42.2417 45.9641 41.9698 45.0145 41.6719 44.0649ZM41.6201 44.21V42.8779C41.3482 42.8779 41.0763 42.8647 40.7784 42.8647C40.5583 43.9198 40.2216 45.1068 39.7683 46.4258C39.4964 47.1907 39.0561 48.3382 38.4475 49.8681H40.0144C40.1439 49.1823 40.2993 48.5624 40.4806 47.9821H41.6201V46.9401H40.7396C41.0763 45.8322 41.3741 44.9222 41.6201 44.21Z" fill="#00386E"/>
<path fill-rule="evenodd" clip-rule="evenodd" d="M46.3338 49.8681C46.4504 48.8394 46.5022 47.5204 46.5022 45.9114C46.5022 44.909 46.4892 44.2495 46.4763 43.9066C45.6345 43.9198 44.9612 43.9858 44.4561 44.1176L44.6115 42.8911H49.7914L49.9209 44.1176C49.4158 43.9989 48.7424 43.933 47.9007 43.9066C47.8878 44.3946 47.8748 44.9749 47.8748 45.6608C47.8748 47.4413 47.9266 48.8526 48.0432 49.8681H46.3338Z" fill="#00386E"/>
<path fill-rule="evenodd" clip-rule="evenodd" d="M50.7885 42.8911H54.7122L54.8288 44.0649C54.246 43.9726 53.6504 43.933 53.0288 43.933H52.3425V45.6608H54.8288L54.6345 46.7819C54.1165 46.7159 53.5468 46.6895 52.9511 46.6895H52.3425V48.8525H52.8604C53.5209 48.8525 54.1942 48.7998 54.8806 48.6943L54.6734 49.8681H50.7885C50.8921 48.7602 50.9439 47.5996 50.9439 46.3598C50.9439 45.3574 50.8921 44.1968 50.7885 42.8911Z" fill="#00386E"/>
<path fill-rule="evenodd" clip-rule="evenodd" d="M58.7784 42.9042C59.3352 42.9438 59.7626 43.0229 60.0863 43.1285C60.8374 43.4054 61.2 43.9594 61.2 44.7771C61.2 45.7267 60.6432 46.3202 59.5295 46.5444C59.9827 46.7159 60.4101 47.2039 60.8504 47.9953C61.1611 48.6283 61.4719 49.2482 61.7827 49.8681H60.0475C59.5942 48.6283 59.2187 47.7842 58.9209 47.3886C58.8691 47.3226 58.8302 47.2699 58.7784 47.2171V46.0037C59.4518 45.8718 59.7885 45.5157 59.7885 44.9354C59.7885 44.3551 59.4518 44.0253 58.7784 43.933V42.9042ZM56.2273 49.8681H57.9108C57.8201 48.6943 57.7683 47.771 57.7683 47.0852V46.7687C58.1568 46.7687 58.4935 46.9269 58.7784 47.2171V46.0037C58.5971 46.0301 58.3899 46.0565 58.1568 46.0565C57.9755 46.0565 57.846 46.0565 57.7683 46.0433C57.7683 45.4629 57.7813 44.7639 57.7942 43.933C57.9626 43.9198 58.1439 43.9066 58.377 43.9066C58.5194 43.9066 58.6489 43.9198 58.7655 43.933V42.9042C58.5194 42.8911 58.2475 42.8911 57.9496 42.8911H56.2144C56.3309 44.0913 56.3827 45.2519 56.3827 46.3598C56.3957 47.6391 56.3309 48.813 56.2273 49.8681Z" fill="#00386E"/>
<path fill-rule="evenodd" clip-rule="evenodd" d="M59.5943 5.02506V4.02269H60.4878C60.3712 3.58744 60.2417 3.1522 60.0993 2.67739C59.9569 2.21577 59.8144 1.75415 59.6461 1.26616C59.6331 1.30572 59.6202 1.34529 59.5943 1.39805V0.14508C59.6202 0.14508 59.6461 0.14508 59.672 0.14508C59.8274 0.14508 59.9827 0.14508 60.1511 0.14508C60.3065 0.131891 60.4619 0.131891 60.6173 0.118702C60.9022 1.17383 61.2518 2.25534 61.6533 3.37642C62.0547 4.49749 62.5079 5.65814 63.013 6.83197H61.2518C61.1482 6.40992 61.0446 6.05381 60.9669 5.73727C60.8892 5.43392 60.8115 5.18333 60.7468 5.02506H59.5943ZM59.5943 0.14508V1.41124C59.4518 1.80691 59.3094 2.20258 59.1799 2.61145C59.0245 3.05988 58.8691 3.5215 58.7007 4.02269H59.5943V5.02506H58.4288C58.3381 5.31522 58.2475 5.60538 58.1698 5.90873C58.0921 6.19889 58.0144 6.51543 57.9497 6.83197H56.331C56.8748 5.60538 57.341 4.43155 57.7554 3.32366C58.1698 2.20259 58.5065 1.13427 58.7914 0.131891C58.9468 0.14508 59.0892 0.14508 59.2317 0.14508C59.3482 0.14508 59.4648 0.14508 59.5943 0.14508ZM52.3295 6.83197V5.8296H53.7281C53.5727 5.30203 53.4043 4.65576 53.1842 3.91717C52.964 3.16539 52.7051 2.26853 52.3813 1.25297C52.3684 1.30572 52.3425 1.34529 52.3295 1.39805V0.131891C52.3684 0.131891 52.4072 0.131891 52.4461 0.131891C52.5626 0.131891 52.6921 0.131891 52.8216 0.131891C52.9381 0.131891 53.1194 0.118702 53.3525 0.118702C53.5986 1.00237 53.8705 1.92561 54.2072 2.86204C54.531 3.81166 54.9194 4.80084 55.3338 5.8296H56.2015C56.2015 6.05381 56.1885 6.27803 56.1885 6.48905C56.1756 6.71327 56.1756 6.91111 56.1756 7.12213C56.1756 7.30678 56.1756 7.47824 56.1885 7.66289C56.1885 7.84753 56.2015 8.03218 56.2015 8.21683H55.036C55.0489 8.05856 55.0489 7.91348 55.0619 7.75521C55.0619 7.59694 55.0748 7.43867 55.0748 7.26721C55.0748 7.14851 55.0748 7.06938 55.0748 7.01662C55.0619 6.96386 55.0619 6.89792 55.0619 6.85835H52.3295V6.83197ZM52.3295 0.131891V1.38486C51.9669 2.41361 51.682 3.29728 51.4489 4.04906C51.2029 4.81403 51.0345 5.42073 50.931 5.8296H52.3295V6.83197H49.7396C49.7396 6.88473 49.7266 6.93748 49.7266 7.00343C49.7266 7.05619 49.7266 7.1617 49.7266 7.26721C49.7266 7.43867 49.7266 7.59694 49.7396 7.75521C49.7525 7.91348 49.7525 8.07175 49.7655 8.21683H48.613C48.6259 7.99261 48.6259 7.7684 48.6259 7.55737C48.6389 7.33316 48.6389 7.13532 48.6389 6.92429C48.6389 6.75284 48.6389 6.56819 48.6259 6.39673C48.6259 6.21208 48.613 6.02743 48.613 5.84279H49.4806C49.9986 4.60301 50.4259 3.50831 50.7497 2.55869C51.0863 1.60907 51.3194 0.804537 51.4619 0.131891C51.4619 0.131891 51.4748 0.131891 51.4878 0.131891C51.8374 0.131891 52.1223 0.131891 52.3295 0.131891ZM44.9353 6.97705V5.85598C45.5051 5.85598 45.9324 5.67133 46.2173 5.26246C46.5022 4.86679 46.6446 4.27328 46.6446 3.48193C46.6446 2.69058 46.4892 2.11026 46.2173 1.7014C45.9324 1.30572 45.5051 1.10789 44.9353 1.10789V0C45.9194 0 46.7094 0.316539 47.2792 0.936428C47.8489 1.56951 48.1338 2.41361 48.1338 3.49512C48.1338 4.57663 47.8489 5.43392 47.2792 6.05381C46.6964 6.66051 45.9194 6.97705 44.9353 6.97705ZM44.9353 0V1.10789C44.9353 1.10789 44.9353 1.10789 44.9223 1.10789C44.3525 1.10789 43.9252 1.30572 43.6403 1.7014C43.3554 2.09707 43.213 2.69058 43.213 3.48193C43.213 4.27328 43.3684 4.87998 43.6403 5.26246C43.9252 5.65814 44.3525 5.85598 44.9223 5.85598C44.9353 5.85598 44.9353 5.85598 44.9353 5.85598V6.97705C44.9353 6.97705 44.9353 6.97705 44.9223 6.97705C43.9381 6.97705 43.1482 6.66051 42.5784 6.04062C41.9957 5.42073 41.7108 4.56344 41.7108 3.48193C41.7108 2.40042 41.9957 1.55632 42.5784 0.923239C43.1482 0.316539 43.9381 0 44.9353 0ZM38.318 6.7924V5.8296C38.5899 5.79003 38.8101 5.71089 38.9784 5.60538C39.2633 5.42073 39.4058 5.17014 39.4058 4.82722C39.4058 4.45793 39.2504 4.18095 38.9655 3.99631C38.7971 3.8776 38.577 3.81166 38.318 3.77209V2.80929C38.4863 2.76972 38.6288 2.71696 38.7324 2.65102C39.0173 2.49275 39.1468 2.25534 39.1468 1.9388C39.1468 1.64864 39.0302 1.43762 38.8101 1.29254C38.6806 1.2134 38.5122 1.16064 38.305 1.13427V0.15827C38.5899 0.171459 38.823 0.197837 39.0173 0.224215C39.3281 0.276972 39.5741 0.356107 39.7813 0.46162C40.0274 0.6067 40.2345 0.778159 40.364 0.989185C40.5065 1.2134 40.5712 1.4508 40.5712 1.71459C40.5712 2.08388 40.4547 2.40042 40.2086 2.65102C39.9626 2.9148 39.613 3.11264 39.1468 3.24453C39.6907 3.31047 40.1309 3.49512 40.4288 3.77209C40.7396 4.06225 40.882 4.41836 40.882 4.8536C40.882 5.11738 40.8302 5.38117 40.7137 5.60538C40.5971 5.8296 40.4288 6.02743 40.2345 6.19889C39.9367 6.42311 39.5741 6.59457 39.1209 6.68689C38.9137 6.72646 38.6417 6.76603 38.318 6.7924ZM38.318 0.15827V1.14745C38.1626 1.12108 37.9813 1.0947 37.7741 1.0947C37.7094 1.0947 37.5799 1.10789 37.3856 1.10789C37.3209 1.10789 37.2691 1.10789 37.2432 1.10789C37.2302 1.41124 37.2302 1.7014 37.2173 2.00475C37.2173 2.29491 37.2173 2.59826 37.2173 2.87523C37.2432 2.87523 37.295 2.88842 37.3468 2.88842C37.3986 2.88842 37.4374 2.88842 37.4633 2.88842C37.7871 2.88842 38.072 2.87523 38.305 2.80929V3.77209C38.1108 3.73252 37.8907 3.71934 37.6446 3.71934C37.5928 3.71934 37.554 3.71934 37.4892 3.73252C37.4374 3.73252 37.3338 3.74571 37.2173 3.74571C37.2173 4.43155 37.2173 4.90636 37.2173 5.18333C37.2173 5.44711 37.2302 5.67133 37.2302 5.85598C37.2432 5.85598 37.2561 5.86916 37.282 5.86916C37.4633 5.88235 37.6058 5.88235 37.6964 5.88235C37.9295 5.88235 38.1367 5.86916 38.318 5.84279V6.80559C37.9684 6.83197 37.554 6.84516 37.0748 6.84516H35.6633C35.7151 6.35716 35.754 5.81641 35.7928 5.26246C35.8187 4.70852 35.8317 4.11501 35.8317 3.48193C35.8317 2.98074 35.8187 2.45318 35.7928 1.89924C35.7669 1.34529 35.7281 0.76497 35.6763 0.15827H37.7871C37.9813 0.14508 38.1497 0.15827 38.318 0.15827ZM28.3209 5.02506V4.02269H29.2273C29.1108 3.58744 28.9813 3.1522 28.8259 2.67739C28.6835 2.21577 28.541 1.75415 28.3727 1.26616C28.3597 1.30572 28.3338 1.34529 28.3209 1.39805V0.14508C28.3468 0.14508 28.3727 0.14508 28.3986 0.14508C28.554 0.14508 28.7094 0.14508 28.8648 0.14508C29.0202 0.131891 29.1755 0.131891 29.3309 0.118702C29.6158 1.17383 29.9784 2.25534 30.3669 3.37642C30.7684 4.49749 31.2216 5.65814 31.7137 6.83197H29.9655C29.8619 6.40992 29.7712 6.05381 29.6806 5.73727C29.6029 5.43392 29.5252 5.18333 29.4604 5.02506H28.3209ZM0 0.14508H1.61871C1.57986 0.540754 1.55396 0.870483 1.54101 1.17383C1.52806 1.46399 1.52806 1.72778 1.52806 1.95199C1.52806 2.36085 1.59281 2.65102 1.73525 2.83566C1.8777 3.02031 2.08489 3.11264 2.38273 3.11264C2.53813 3.11264 2.71943 3.09945 2.91367 3.05988C3.09496 3.00712 3.31511 2.95437 3.56115 2.86204C3.56115 2.38723 3.5482 1.91242 3.53525 1.46399C3.5223 1.00237 3.48345 0.567133 3.44461 0.15827H5.15396C5.10216 0.778159 5.06331 1.35848 5.03741 1.89924C5.02446 2.45318 4.99856 2.96755 4.99856 3.48193C4.99856 4.08863 5.01151 4.66895 5.05036 5.2229C5.07626 5.77684 5.11511 6.31759 5.16691 6.83197H3.39281C3.44461 6.37035 3.48345 5.88235 3.50935 5.35479C3.53525 4.82722 3.56115 4.27328 3.56115 3.67977C3.15971 3.86442 2.81007 3.99631 2.48633 4.10182C2.17554 4.18095 1.8777 4.22052 1.61871 4.22052C1.16547 4.22052 0.841727 4.1282 0.634533 3.91717C0.414389 3.70615 0.258993 3.36323 0.181295 2.84885C0.168345 2.80929 0.168345 2.69058 0.168345 2.49275C0.155396 1.67502 0.0906475 0.896861 0 0.14508ZM28.3209 0.14508V1.41124C28.1784 1.80691 28.036 2.20258 27.9065 2.61145C27.7511 3.05988 27.5957 3.5215 27.4273 4.02269H28.3209V5.02506H27.1554C27.0648 5.31522 26.9741 5.60538 26.9094 5.90873C26.8317 6.19889 26.754 6.51543 26.6892 6.83197H25.0705C25.6014 5.60538 26.0806 4.43155 26.482 3.32366C26.8964 2.20259 27.2331 1.13427 27.5309 0.131891C27.6734 0.14508 27.8158 0.14508 27.9712 0.14508C28.0878 0.14508 28.2043 0.14508 28.3209 0.14508ZM6.72087 0.14508H8.36547C8.31367 0.619889 8.28777 1.17383 8.27482 1.8201C8.26187 2.45318 8.24892 3.17858 8.24892 3.99631V4.53706C8.72806 3.93036 9.2072 3.32366 9.67338 2.69058C10.1396 2.0575 10.5928 1.42443 11.059 0.778159C11.046 0.738591 11.046 0.659457 11.046 0.567133C11.0331 0.382485 11.0331 0.237404 11.0331 0.14508H12.6518C12.6 0.672646 12.5612 1.2134 12.5353 1.76734C12.5094 2.32129 12.4964 2.88842 12.4964 3.46874C12.4964 4.08863 12.5094 4.66895 12.5353 5.2229C12.5612 5.77684 12.613 6.31759 12.6648 6.83197H10.9942C11.046 6.22527 11.0719 5.61857 11.0978 5.01187C11.1108 4.40517 11.1237 3.81166 11.1237 3.21815C11.1237 3.13901 11.1237 3.00712 11.1237 2.83566C11.1108 2.6642 11.1108 2.5455 11.1108 2.43999C10.5928 3.09945 10.1007 3.7589 9.62159 4.39198C9.14245 5.02506 8.70216 5.63176 8.27482 6.22527C8.28777 6.33078 8.28777 6.4363 8.28777 6.52862C8.28777 6.63413 8.30072 6.72646 8.30072 6.81878H6.70792C6.75971 6.33078 6.81151 5.80322 6.83741 5.23609C6.86331 4.68214 6.88921 4.08863 6.88921 3.45555C6.88921 2.94118 6.87626 2.41361 6.83741 1.85967C6.81151 1.31891 6.77266 0.751781 6.72087 0.14508ZM18.7511 0.171459L18.9065 1.49037C18.6863 1.39805 18.4532 1.31891 18.2201 1.26616C17.9871 1.2134 17.741 1.18702 17.495 1.18702C16.8086 1.18702 16.2777 1.39805 15.8892 1.8201C15.5007 2.24215 15.3065 2.82247 15.3065 3.56107C15.3065 4.28647 15.4878 4.84041 15.8245 5.23609C16.1741 5.63176 16.6532 5.81641 17.2878 5.81641C17.5468 5.81641 17.8187 5.77684 18.1036 5.69771C18.3885 5.60538 18.6863 5.47349 18.9842 5.28884L18.8417 6.52862C18.5957 6.6737 18.2978 6.77921 17.9871 6.84516C17.6763 6.92429 17.3266 6.96386 16.9511 6.96386C15.9669 6.96386 15.2029 6.6737 14.659 6.09338C14.1151 5.51306 13.8302 4.72171 13.8302 3.70615C13.8302 2.58507 14.154 1.7014 14.8144 1.04194C15.4619 0.382485 16.3684 0.0659457 17.495 0.0659457C17.7022 0.0659457 17.8964 0.0791348 18.1036 0.0923239C18.3367 0.0923239 18.5309 0.131891 18.7511 0.171459ZM19.5022 0.14508H24.7468L24.8892 1.31891C24.5784 1.25297 24.2417 1.20021 23.905 1.17383C23.5684 1.13427 23.2187 1.12108 22.8432 1.12108C22.8302 1.41124 22.8302 1.7014 22.8173 1.99156C22.8173 2.28172 22.8173 2.55869 22.8173 2.84885C22.8173 3.70615 22.8302 4.44474 22.8561 5.10419C22.895 5.76365 22.9338 6.33078 22.9986 6.83197H21.2504C21.3022 6.34397 21.341 5.81641 21.3669 5.23609C21.3928 4.65576 21.4187 4.02269 21.4187 3.32366C21.4187 2.99393 21.4187 2.65102 21.4058 2.29491C21.4058 1.9388 21.3928 1.55632 21.3799 1.12108C21.0302 1.12108 20.6806 1.13427 20.3439 1.17383C19.9943 1.20021 19.6705 1.25297 19.3468 1.31891L19.5022 0.14508Z" fill="#00386E"/>
</g>
<defs>
<clipPath id="clip0">
<rect width="63" height="50" fill="white"/>
</clipPath>
</defs>
</svg>
