<svg width="16" height="16" viewBox="0 0 16 16" fill="none" xmlns="http://www.w3.org/2000/svg">
<path d="M0.246833 13.3671L2.63239 15.7527C2.7905 15.9108 3.00512 15.9997 3.22874 15.9997C3.45241 15.9997 3.66697 15.9108 3.82509 15.7527L7.99974 11.578L12.1744 15.7527C12.3326 15.9108 12.5471 15.9997 12.7707 15.9997C12.9944 15.9997 13.209 15.9108 13.3671 15.7527L15.7527 13.3671C16.0821 13.0377 16.0821 12.5037 15.7527 12.1743L11.5781 7.99969L15.7527 3.82497C15.9109 3.6668 15.9998 3.45229 15.9998 3.22862C15.9998 3.00489 15.9109 2.79038 15.7527 2.63221L13.3672 0.246653C13.0379 -0.0827271 12.5038 -0.0827272 12.1745 0.246709L7.9998 4.42132L3.82509 0.246709C3.49576 -0.0826709 2.96166 -0.0826709 2.63233 0.246709L0.246833 2.63221C0.0886091 2.79038 -0.000230078 3.00489 -0.000230078 3.22856C-0.000230078 3.45224 0.0886091 3.66674 0.246833 3.82491L4.42143 7.99963L0.246833 12.1743C-0.0826032 12.5037 -0.0826032 13.0377 0.246833 13.3671Z" fill="white"/>
</svg>
