<svg width="111" height="88" viewBox="0 0 111 88" fill="none" xmlns="http://www.w3.org/2000/svg">
<g clip-path="url(#clip0)">
<path fill-rule="evenodd" clip-rule="evenodd" d="M45.7233 21.0541C46.0427 23.2129 46.636 24.1182 46.636 26.393C46.636 26.8341 46.6131 27.4376 46.6131 28.2036C46.2253 28.2965 45.9287 28.3197 45.7233 28.3197C45.5636 28.3197 45.3354 28.2965 45.016 28.2269C43.8524 24.9306 41.9358 22.4236 39.2892 20.6595C36.6653 18.8721 33.3798 18.0132 29.5011 18.0132C27.4249 18.0132 25.6908 18.2453 24.2991 18.7328C21.7893 19.5917 19.5761 20.7987 17.7052 22.3308C15.8115 23.8628 14.2144 25.6967 12.9139 27.809C11.6133 29.9446 10.5638 32.498 9.81087 35.5389C9.05794 38.5566 8.67007 41.6439 8.67007 44.7776C8.67007 50.7666 9.58271 55.7341 11.3852 59.6571C13.1876 63.5569 15.6746 66.3656 18.8004 68.0369C21.949 69.6851 25.0976 70.5207 28.3147 70.5207L30.2769 70.4975C32.5128 70.219 34.0187 69.9404 34.8172 69.6851C36.8479 69.1047 38.5134 68.4083 39.8368 67.6191C41.1601 66.8067 42.4378 65.6692 43.7155 64.23C44.9704 62.7676 46.0656 61.0499 46.9326 59.1232L47.4573 58.9839C47.5714 58.9839 47.7768 59.0536 48.0734 59.216C48.0505 59.9124 48.0277 60.3303 48.0049 60.5392C46.8413 65.2746 45.9743 68.5012 45.4495 70.2422C45.016 70.3582 44.4456 70.5207 43.7839 70.7528C40.5213 71.8671 36.1862 72.4474 30.7332 72.4474C26.3297 72.4474 23.0442 72.1456 20.8538 71.5421C18.6635 70.9386 16.3134 70.01 13.7352 68.7101C11.157 67.4102 8.89823 65.7157 6.95887 63.6033C5.01951 61.5141 3.42238 58.8679 2.25877 55.6645C1.04952 52.4379 0.456299 48.9327 0.456299 45.1723C0.456299 41.5743 0.935436 38.4405 1.87089 35.771C2.82917 33.0783 4.28939 30.3624 6.25157 27.6233C8.21375 24.861 10.541 22.5397 13.2333 20.7291C15.9028 18.8953 18.8917 17.6186 22.1772 16.8525C24.4816 16.3419 27.7443 16.1097 31.9881 16.1097C35.0682 16.1097 37.9659 16.5276 40.7038 17.34C43.3961 18.1757 44.8107 20.2648 45.7233 21.0541Z" fill="white"/>
<path fill-rule="evenodd" clip-rule="evenodd" d="M34.0644 17.5721L34.0187 16.899C34.9314 15.7383 39.7227 16.1562 41.2058 16.1562C44.4228 16.2258 47.9365 15.8544 51.0623 16.3419C51.1079 16.9918 51.0851 17.5721 51.0167 18.2221C49.4652 18.2917 47.6627 18.1293 46.1797 18.5935C45.7462 19.6381 46.5219 20.5898 46.887 21.588L55.7624 45.0098C56.4925 46.9596 56.9717 48.1899 57.1998 48.747C59.4586 53.9467 61.2154 59.3553 63.6339 64.4854C64.8888 62.4194 66.7141 58.8446 69.1554 53.6914L72.6007 45.3115L73.1254 45.4508L74.4487 47.7721L74.0609 48.5149L73.8783 48.1667C71.688 51.8344 69.9768 56.0127 68.2428 59.9124L64.9801 66.5977C63.6339 69.4529 62.5616 71.426 61.7174 72.5402L59.9378 72.5867C54.2337 58.334 48.2788 44.1973 42.7116 29.8518C41.3427 26.5787 40.316 23.1665 38.947 19.8702C37.8746 18.0596 35.7528 18.2917 34.0644 17.5721ZM84.3737 56.3144C85.5145 58.7518 86.6325 61.1891 87.5452 63.7193C89.1879 58.4268 91.4923 53.3664 93.4773 48.1899L96.6944 39.9726C98.7935 33.8676 101.417 27.6465 102.741 21.3094C102.9 20.3577 103.288 19.6149 102.398 18.8721C100.984 17.6418 97.1507 18.5007 97.5158 16.0401C99.341 15.9472 101.121 15.9937 102.946 16.0401C105.615 16.0169 108.308 15.9008 110.954 16.0865C111 16.5508 110.977 16.9222 110.909 17.3864C109.403 17.99 107.03 18.7096 106.049 20.1952C105.775 20.5898 105.296 21.6576 104.566 23.4218C102.9 27.4608 101.737 31.7552 100.117 35.8175C95.3254 47.9114 91.1729 60.2606 86.6553 72.4474C86.0165 72.5402 85.4461 72.5402 84.8072 72.4938C82.8451 66.9924 80.3125 61.5838 77.8712 56.3144H84.3737Z" fill="white"/>
<path fill-rule="evenodd" clip-rule="evenodd" d="M77.5061 52.7861C80.5863 37.837 55.0551 33.5658 63.748 18.756C76.6619 8.00844 90.7622 28.8304 77.5061 52.7861Z" fill="#00ABE5" stroke="#00ABE5" stroke-width="0.216"/>
<path fill-rule="evenodd" clip-rule="evenodd" d="M78.51 34.4711C79.7192 28.6679 69.8171 27.0198 73.1938 21.2862C78.1677 17.1079 83.6436 25.1628 78.51 34.4711Z" fill="white" stroke="#00ABE5" stroke-width="0.216"/>
<path fill-rule="evenodd" clip-rule="evenodd" d="M9.78812 87.1179C8.94393 87.675 7.87157 87.9768 6.63951 87.9768C4.97394 87.9768 3.67342 87.3965 2.73796 86.2126C1.89377 85.1216 1.46027 83.7288 1.46027 82.0111C1.46027 80.0148 1.96222 78.3899 3.01176 77.1364C4.10693 75.8597 5.61278 75.1865 7.55215 75.1865C8.25944 75.1865 8.94393 75.2793 9.65122 75.465L9.92502 77.9024C9.1949 77.531 8.41916 77.3453 7.64341 77.3453C6.43416 77.3453 5.52152 77.7863 4.90549 78.6452C4.33509 79.4344 4.06129 80.4558 4.06129 81.7093C4.06129 82.8932 4.31227 83.8217 4.76859 84.5413C5.31618 85.3537 6.16037 85.7716 7.27836 85.7716C8.12255 85.7716 9.03519 85.4466 9.99346 84.7966L9.78812 87.1179Z" fill="white"/>
<path fill-rule="evenodd" clip-rule="evenodd" d="M11.91 75.4883H14.9217C14.7392 77.7167 14.6479 80.5022 14.6479 83.8217V85.8876H15.6746C16.8839 85.8876 18.0475 85.7948 19.2567 85.6323L18.8917 87.7679H11.91C12.0925 85.818 12.1838 83.7753 12.1838 81.5933C12.1838 79.8291 12.0925 77.8096 11.91 75.4883Z" fill="white"/>
<path fill-rule="evenodd" clip-rule="evenodd" d="M20.8539 75.4883H27.7671L27.9725 77.5542C26.9458 77.3917 25.8962 77.3221 24.8239 77.3221H23.6146V80.363H27.9725L27.6302 82.3361C26.7176 82.22 25.7365 82.1736 24.687 82.1736H23.6146V85.9805H24.5044C25.6681 85.9805 26.8773 85.8876 28.0637 85.7019L27.6987 87.7679H20.8539C21.0364 85.818 21.1277 83.7753 21.1277 81.5933C21.1277 79.8291 21.0364 77.7863 20.8539 75.4883Z" fill="white"/>
<path fill-rule="evenodd" clip-rule="evenodd" d="M34.7716 77.5542C34.7488 77.6471 34.7032 77.7167 34.6804 77.8096V75.465C35.2964 75.4883 35.8896 75.465 36.4372 75.4418C37.4183 79.2952 38.7873 83.4039 40.5669 87.7679H37.5552C37.3499 86.7233 37.0532 85.5859 36.711 84.4484H34.7032V82.6146H36.2547C35.7527 80.8969 35.2964 79.2255 34.7716 77.5542ZM34.6576 77.8096V75.465C34.1784 75.465 33.6993 75.4418 33.1745 75.4418C32.7866 77.2989 32.1934 79.388 31.3949 81.7093C30.9157 83.0557 30.14 85.0752 29.0676 87.7679H31.8512C32.0793 86.5608 32.3531 85.4698 32.6726 84.4484H34.6804V82.6146H33.1289C33.6993 80.6647 34.2241 79.063 34.6576 77.8096Z" fill="white"/>
<path fill-rule="evenodd" clip-rule="evenodd" d="M46.4078 75.5115C47.3889 75.5811 48.1646 75.7204 48.7122 75.9061C50.0355 76.3936 50.6744 77.3685 50.6744 78.8077C50.6744 80.479 49.6933 81.5236 47.7311 81.9182C48.5297 82.22 49.2826 83.0789 50.0583 84.4717C50.6059 85.5859 51.1535 86.6769 51.7011 87.7679H48.6666C47.868 85.5859 47.1835 84.1002 46.6587 83.4039C46.5675 83.2878 46.499 83.1949 46.4078 83.1021V80.9665C47.5942 80.7344 48.1874 80.1076 48.1874 79.0863C48.1874 78.0649 47.5942 77.4846 46.4078 77.3221V75.5115ZM41.913 87.7679H44.8791C44.7194 85.7019 44.6281 84.077 44.6281 82.87V82.3129C45.3126 82.3129 45.9286 82.5914 46.4078 83.1021V80.9665C46.0883 81.0129 45.7233 81.0594 45.3126 81.0594C44.9932 81.0594 44.765 81.0594 44.6281 81.0361C44.6281 80.0148 44.6509 78.7845 44.6738 77.3221C44.9704 77.2989 45.3126 77.2757 45.7005 77.2757C45.9515 77.2757 46.1796 77.2989 46.385 77.3221V75.5115C45.9515 75.4883 45.4723 75.4883 44.9475 75.4883H41.8902C42.0955 77.6006 42.1868 79.6434 42.1868 81.5933C42.2096 83.8449 42.0955 85.9109 41.913 87.7679Z" fill="white"/>
<path fill-rule="evenodd" clip-rule="evenodd" d="M51.8608 75.4883H54.8269C55.0779 77.5542 55.7396 80.688 56.8119 84.8663C57.9984 80.8272 58.8654 77.7167 59.4129 75.4883H61.0785C61.512 77.5774 62.3334 80.6647 63.5198 84.8198C64.4553 81.6861 65.1398 78.5756 65.5961 75.4883H68.334C67.0107 79.272 65.8471 83.3806 64.7975 87.7679H62.2193C61.6033 85.168 60.896 82.5218 60.0746 79.8291C59.3217 82.3361 58.6144 84.9823 57.9527 87.7679H55.3289C54.2565 82.9396 53.0929 78.8309 51.8608 75.4883Z" fill="white"/>
<path fill-rule="evenodd" clip-rule="evenodd" d="M73.422 77.5542C73.3992 77.6471 73.3536 77.7167 73.3308 77.8096V75.465C73.9468 75.4883 74.54 75.465 75.0876 75.4418C76.0687 79.2952 77.4377 83.4039 79.2173 87.7679H76.2056C76.0002 86.7233 75.7036 85.5859 75.3614 84.4484H73.3536V82.6146H74.9051C74.4259 80.8969 73.9468 79.2255 73.422 77.5542ZM73.3308 77.8096V75.465C72.8516 75.465 72.3725 75.4418 71.8477 75.4418C71.4599 77.2989 70.8666 79.388 70.0681 81.7093C69.5889 83.0557 68.8132 85.0752 67.7408 87.7679H70.5016C70.7297 86.5608 71.0035 85.4698 71.323 84.4484H73.3308V82.6146H71.7793C72.3725 80.6647 72.8973 79.063 73.3308 77.8096Z" fill="white"/>
<path fill-rule="evenodd" clip-rule="evenodd" d="M81.6358 87.7679C81.8411 85.9573 81.9324 83.636 81.9324 80.804C81.9324 79.0398 81.9096 77.8792 81.8867 77.2757C80.4037 77.2989 79.2173 77.4149 78.3275 77.6471L78.6012 75.4883H87.7276L87.9558 77.6471C87.066 77.4381 85.8795 77.3221 84.3965 77.2757C84.3737 78.1345 84.3509 79.1559 84.3509 80.363C84.3509 83.4967 84.4421 85.9805 84.6475 87.7679H81.6358Z" fill="white"/>
<path fill-rule="evenodd" clip-rule="evenodd" d="M89.4845 75.4883H96.3977L96.6031 77.5542C95.5764 77.3917 94.5268 77.3221 93.4317 77.3221H92.2224V80.363H96.6031L96.2608 82.3361C95.3482 82.22 94.3443 82.1736 93.2948 82.1736H92.2224V85.9805H93.1351C94.2987 85.9805 95.4851 85.8876 96.6943 85.7019L96.3293 87.7679H89.4845C89.667 85.818 89.7583 83.7753 89.7583 81.5933C89.7583 79.8291 89.667 77.7863 89.4845 75.4883Z" fill="white"/>
<path fill-rule="evenodd" clip-rule="evenodd" d="M103.562 75.5115C104.543 75.5811 105.296 75.7204 105.866 75.9061C107.19 76.3936 107.829 77.3685 107.829 78.8077C107.829 80.479 106.848 81.5236 104.885 81.9182C105.684 82.22 106.437 83.0789 107.213 84.4717C107.76 85.5859 108.308 86.6769 108.855 87.7679H105.798C104.999 85.5859 104.338 84.1002 103.813 83.4039C103.722 83.2878 103.653 83.1949 103.562 83.1021V80.9665C104.748 80.7344 105.342 80.1076 105.342 79.0863C105.342 78.0649 104.748 77.4846 103.562 77.3221V75.5115ZM99.0673 87.7679H102.033C101.874 85.7019 101.782 84.077 101.782 82.87V82.3129C102.467 82.3129 103.06 82.5914 103.562 83.1021V80.9665C103.243 81.0129 102.878 81.0594 102.467 81.0594C102.147 81.0594 101.919 81.0594 101.782 81.0361C101.782 80.0148 101.805 78.7845 101.828 77.3221C102.125 77.2989 102.444 77.2757 102.855 77.2757C103.106 77.2757 103.334 77.2989 103.539 77.3221V75.5115C103.106 75.4883 102.627 75.4883 102.102 75.4883H99.0444C99.2498 77.6006 99.341 79.6434 99.341 81.5933C99.3639 83.8449 99.2498 85.9109 99.0673 87.7679Z" fill="white"/>
<path fill-rule="evenodd" clip-rule="evenodd" d="M104.999 8.8441V7.07993H106.574C106.368 6.3139 106.14 5.54788 105.889 4.71221C105.638 3.89976 105.387 3.08731 105.091 2.22844C105.068 2.29807 105.045 2.36771 104.999 2.46056V0.255342C105.045 0.255342 105.091 0.255342 105.136 0.255342C105.41 0.255342 105.684 0.255342 105.981 0.255342C106.254 0.232129 106.528 0.232129 106.802 0.208916C107.304 2.06595 107.92 3.9694 108.627 5.9425C109.334 7.91559 110.133 9.95832 111.023 12.0243H107.92C107.737 11.2815 107.555 10.6547 107.418 10.0976C107.281 9.5637 107.144 9.12266 107.03 8.8441H104.999ZM104.999 0.255342V2.48378C104.748 3.18016 104.497 3.87655 104.269 4.59615C103.996 5.38539 103.722 6.19784 103.425 7.07993H104.999V8.8441H102.946C102.786 9.35479 102.627 9.86547 102.49 10.3994C102.353 10.9101 102.216 11.4672 102.102 12.0243H99.2498C100.208 9.86547 101.029 7.79953 101.76 5.84964C102.49 3.87655 103.083 1.99631 103.585 0.232129C103.859 0.255342 104.11 0.255342 104.361 0.255342C104.566 0.255342 104.771 0.255342 104.999 0.255342ZM92.1996 12.0243V10.2601H94.6637C94.39 9.33158 94.0934 8.19414 93.7055 6.89422C93.3176 5.57109 92.8613 3.99261 92.2909 2.20522C92.2681 2.29807 92.2224 2.36771 92.1996 2.46056V0.232129C92.2681 0.232129 92.3365 0.232129 92.405 0.232129C92.6103 0.232129 92.8385 0.232129 93.0666 0.232129C93.272 0.232129 93.5914 0.208916 94.0021 0.208916C94.4356 1.76418 94.9147 3.38908 95.5079 5.03719C96.0783 6.70852 96.7628 8.44949 97.4929 10.2601H99.0216C99.0216 10.6547 98.9988 11.0493 98.9988 11.4207C98.976 11.8154 98.976 12.1635 98.976 12.535C98.976 12.8599 98.976 13.1617 98.9988 13.4867C98.9988 13.8117 99.0216 14.1366 99.0216 14.4616H96.9682C96.991 14.1831 96.991 13.9277 97.0138 13.6492C97.0138 13.3706 97.0366 13.0921 97.0366 12.7903C97.0366 12.5814 97.0366 12.4421 97.0366 12.3492C97.0138 12.2564 97.0138 12.1403 97.0138 12.0707H92.1996V12.0243ZM92.1996 0.232129V2.43735C91.5608 4.24796 91.0588 5.80322 90.6481 7.12635C90.2146 8.4727 89.918 9.54049 89.7355 10.2601H92.1996V12.0243H87.6364C87.6364 12.1171 87.6136 12.21 87.6136 12.326C87.6136 12.4189 87.6136 12.6046 87.6136 12.7903C87.6136 13.0921 87.6136 13.3706 87.6364 13.6492C87.6592 13.9277 87.6592 14.2063 87.682 14.4616H85.6514C85.6742 14.067 85.6742 13.6724 85.6742 13.301C85.697 12.9064 85.697 12.5582 85.697 12.1868C85.697 11.885 85.697 11.56 85.6742 11.2582C85.6742 10.9333 85.6514 10.6083 85.6514 10.2833H87.1801C88.0927 8.10129 88.8457 6.17462 89.4161 4.5033C90.0093 2.83197 90.42 1.41599 90.6709 0.232129C90.6709 0.232129 90.6938 0.232129 90.7166 0.232129C91.3326 0.232129 91.8346 0.232129 92.1996 0.232129ZM79.1717 12.2796V10.3065C80.1756 10.3065 80.9285 9.98154 81.4304 9.26194C81.9324 8.56555 82.1834 7.52097 82.1834 6.1282C82.1834 4.73543 81.9096 3.71406 81.4304 2.99446C80.9285 2.29807 80.1756 1.94988 79.1717 1.94988V0C80.9057 0 82.2975 0.557109 83.3014 1.64811C84.3053 2.76233 84.8072 4.24796 84.8072 6.15141C84.8072 8.05487 84.3053 9.5637 83.3014 10.6547C82.2746 11.7225 80.9057 12.2796 79.1717 12.2796ZM79.1717 0V1.94988C79.1717 1.94988 79.1717 1.94988 79.1488 1.94988C78.1449 1.94988 77.392 2.29807 76.8901 2.99446C76.3881 3.69085 76.1371 4.73543 76.1371 6.1282C76.1371 7.52097 76.4109 8.58876 76.8901 9.26194C77.392 9.95832 78.1449 10.3065 79.1488 10.3065C79.1717 10.3065 79.1717 10.3065 79.1717 10.3065V12.2796C79.1717 12.2796 79.1717 12.2796 79.1488 12.2796C77.4148 12.2796 76.023 11.7225 75.0191 10.6315C73.9924 9.54049 73.4905 8.03165 73.4905 6.1282C73.4905 4.22474 73.9924 2.73912 75.0191 1.6249C76.023 0.557109 77.4148 0 79.1717 0ZM67.5127 11.9546V10.2601C67.9918 10.1905 68.3797 10.0512 68.6763 9.86547C69.1782 9.54049 69.4292 9.09945 69.4292 8.49591C69.4292 7.84595 69.1554 7.35848 68.6535 7.0335C68.3568 6.82458 67.969 6.70852 67.5127 6.63888V4.94434C67.8093 4.8747 68.0602 4.78185 68.2428 4.66579C68.7447 4.38723 68.9729 3.9694 68.9729 3.41229C68.9729 2.90161 68.7675 2.5302 68.3797 2.27486C68.1515 2.13558 67.8549 2.04273 67.4898 1.99631V0.278554C67.9918 0.301767 68.4025 0.348193 68.7447 0.394619C69.2923 0.48747 69.7258 0.626748 70.0909 0.812451C70.5244 1.06779 70.8894 1.36956 71.1176 1.74097C71.3686 2.13558 71.4827 2.55342 71.4827 3.01767C71.4827 3.66763 71.2773 4.22474 70.8438 4.66579C70.4103 5.13005 69.7943 5.47824 68.9729 5.71037C69.9312 5.82643 70.7069 6.15141 71.2317 6.63888C71.7793 7.14957 72.0302 7.77631 72.0302 8.54234C72.0302 9.00659 71.939 9.47085 71.7336 9.86547C71.5283 10.2601 71.2317 10.6083 70.8894 10.9101C70.3647 11.3047 69.7258 11.6064 68.9273 11.7689C68.5622 11.8386 68.0831 11.9082 67.5127 11.9546ZM67.5127 0.278554V2.01952C67.2389 1.97309 66.9194 1.92667 66.5544 1.92667C66.4403 1.92667 66.2122 1.94988 65.8699 1.94988C65.7558 1.94988 65.6646 1.94988 65.6189 1.94988C65.5961 2.48378 65.5961 2.99446 65.5733 3.52836C65.5733 4.03904 65.5733 4.57294 65.5733 5.06041C65.6189 5.06041 65.7102 5.08362 65.8015 5.08362C65.8927 5.08362 65.9612 5.08362 66.0068 5.08362C66.5772 5.08362 67.0792 5.06041 67.4898 4.94434V6.63888C67.1476 6.56924 66.7597 6.54603 66.3262 6.54603C66.235 6.54603 66.1665 6.54603 66.0524 6.56924C65.9612 6.56924 65.7786 6.59246 65.5733 6.59246C65.5733 7.79953 65.5733 8.63519 65.5733 9.12266C65.5733 9.58692 65.5961 9.98154 65.5961 10.3065C65.6189 10.3065 65.6417 10.3297 65.6874 10.3297C66.0068 10.3529 66.2578 10.3529 66.4175 10.3529C66.8282 10.3529 67.1932 10.3297 67.5127 10.2833V11.9778C66.8966 12.0243 66.1665 12.0475 65.3223 12.0475H62.8354C62.9266 11.1886 62.9951 10.2369 63.0635 9.26194C63.1092 8.287 63.132 7.24242 63.132 6.1282C63.132 5.24611 63.1092 4.31759 63.0635 3.34265C63.0179 2.36771 62.9495 1.34635 62.8582 0.278554H66.5772C66.9194 0.255342 67.216 0.278554 67.5127 0.278554ZM49.8987 8.8441V7.07993H51.4958C51.2905 6.3139 51.0623 5.54788 50.7885 4.71221C50.5375 3.89976 50.2866 3.08731 49.9899 2.22844C49.9671 2.29807 49.9215 2.36771 49.8987 2.46056V0.255342C49.9443 0.255342 49.9899 0.255342 50.0356 0.255342C50.3094 0.255342 50.5832 0.255342 50.857 0.255342C51.1307 0.232129 51.4045 0.232129 51.6783 0.208916C52.1803 2.06595 52.8191 3.9694 53.5036 5.9425C54.2109 7.91559 55.0095 9.95832 55.8765 12.0243H52.7963C52.6138 11.2815 52.4541 10.6547 52.2944 10.0976C52.1575 9.5637 52.0206 9.12266 51.9065 8.8441H49.8987ZM0 0.255342H2.85201C2.78356 0.951728 2.73792 1.53205 2.71511 2.06595C2.69229 2.57663 2.69229 3.04089 2.69229 3.43551C2.69229 4.1551 2.80637 4.66579 3.05735 4.99077C3.30833 5.31575 3.67338 5.47824 4.19815 5.47824C4.47194 5.47824 4.79137 5.45503 5.13361 5.38539C5.45303 5.29254 5.84091 5.19968 6.27441 5.03719C6.27441 4.20153 6.25159 3.36587 6.22878 2.57663C6.20596 1.76418 6.13751 0.998154 6.06907 0.278554H9.08078C8.98952 1.36956 8.92107 2.39093 8.87544 3.34265C8.85262 4.31759 8.80699 5.2229 8.80699 6.1282C8.80699 7.19599 8.82981 8.21736 8.89826 9.1923C8.94389 10.1672 9.01234 11.119 9.1036 12.0243H5.9778C6.06907 11.2118 6.13751 10.3529 6.18315 9.42443C6.22878 8.49591 6.27441 7.52097 6.27441 6.47639C5.56711 6.80137 4.95108 7.0335 4.38068 7.2192C3.83309 7.35848 3.30833 7.42812 2.85201 7.42812C2.05344 7.42812 1.48304 7.26563 1.11799 6.89422C0.730113 6.52282 0.456321 5.91928 0.319425 5.01398C0.296609 4.94434 0.296609 4.73543 0.296609 4.38723C0.273792 2.94804 0.159712 1.57848 0 0.255342ZM49.8987 0.255342V2.48378C49.6477 3.18016 49.3967 3.87655 49.1686 4.59615C48.8948 5.38539 48.621 6.19784 48.3244 7.07993H49.8987V8.8441H47.8452C47.6855 9.35479 47.5258 9.86547 47.4117 10.3994C47.2748 10.9101 47.1379 11.4672 47.0239 12.0243H44.1719C45.1073 9.86547 45.9515 7.79953 46.6588 5.84964C47.3889 3.87655 47.9821 1.99631 48.5069 0.232129C48.7579 0.255342 49.0089 0.255342 49.2826 0.255342C49.488 0.255342 49.6933 0.255342 49.8987 0.255342ZM11.8415 0.255342H14.7392C14.6479 1.09101 14.6023 2.06595 14.5794 3.20338C14.5566 4.31759 14.5338 5.5943 14.5338 7.0335V7.98523C15.378 6.91744 16.2222 5.84964 17.0436 4.73543C17.865 3.62121 18.6635 2.50699 19.4849 1.36956C19.4621 1.29992 19.4621 1.16064 19.4621 0.998154C19.4393 0.673173 19.4393 0.417832 19.4393 0.255342H22.2913C22.2 1.18386 22.1316 2.13558 22.0859 3.11053C22.0403 4.08547 22.0175 5.08362 22.0175 6.10499C22.0175 7.19599 22.0403 8.21736 22.0859 9.1923C22.1316 10.1672 22.2228 11.119 22.3141 12.0243H19.3708C19.4621 10.9565 19.5077 9.88868 19.5533 8.82089C19.5762 7.7531 19.599 6.70852 19.599 5.66394C19.599 5.52466 19.599 5.29254 19.599 4.99077C19.5762 4.689 19.5762 4.48008 19.5762 4.29438C18.6635 5.45503 17.7965 6.61567 16.9523 7.72989C16.1081 8.8441 15.3324 9.9119 14.5794 10.9565C14.6023 11.1422 14.6023 11.3279 14.6023 11.4904C14.6023 11.6761 14.6251 11.8386 14.6251 12.0011H11.8187C11.91 11.1422 12.0012 10.2137 12.0469 9.21551C12.0925 8.24057 12.1381 7.19599 12.1381 6.08177C12.1381 5.17647 12.1153 4.24796 12.0469 3.27302C12.0012 2.32129 11.9328 1.32313 11.8415 0.255342ZM33.0376 0.301767L33.3114 2.62305C32.9235 2.46056 32.5129 2.32129 32.1022 2.22844C31.6915 2.13558 31.258 2.08916 30.8245 2.08916C29.6152 2.08916 28.6798 2.46056 27.9953 3.20338C27.3108 3.94619 26.9686 4.96756 26.9686 6.26748C26.9686 7.54418 27.288 8.51912 27.8812 9.21551C28.4972 9.9119 29.3414 10.2369 30.4594 10.2369C30.9157 10.2369 31.3949 10.1672 31.8968 10.028C32.3988 9.86547 32.9235 9.63334 33.4483 9.30836L33.1973 11.4904C32.7638 11.7457 32.2391 11.9314 31.6915 12.0475C31.1439 12.1868 30.5279 12.2564 29.8662 12.2564C28.1322 12.2564 26.786 11.7457 25.8278 10.7243C24.8695 9.70298 24.3675 8.31021 24.3675 6.52282C24.3675 4.54972 24.9379 2.99446 26.1015 1.83382C27.2424 0.673173 28.8395 0.116064 30.8245 0.116064C31.1895 0.116064 31.5318 0.139277 31.8968 0.16249C32.3075 0.16249 32.6498 0.232129 33.0376 0.301767ZM34.361 0.255342H43.6015L43.8524 2.32129C43.3048 2.20522 42.7116 2.11237 42.1184 2.06595C41.5252 1.99631 40.9092 1.97309 40.2475 1.97309C40.2247 2.48378 40.2247 2.99446 40.2019 3.50514C40.2019 4.01583 40.2019 4.5033 40.2019 5.01398C40.2019 6.52282 40.2247 7.82274 40.2703 8.98338C40.3388 10.144 40.4072 11.1422 40.5213 12.0243H37.4411C37.5324 11.1654 37.6008 10.2369 37.6465 9.21551C37.6921 8.19414 37.7377 7.07993 37.7377 5.84964C37.7377 5.26932 37.7377 4.66579 37.7149 4.03904C37.7149 3.41229 37.6921 2.73912 37.6693 1.97309C37.0532 1.97309 36.4372 1.99631 35.844 2.06595C35.228 2.11237 34.6576 2.20522 34.0872 2.32129L34.361 0.255342Z" fill="white"/>
</g>
<defs>
<clipPath id="clip0">
<rect width="111" height="88" fill="white"/>
</clipPath>
</defs>
</svg>
