<svg width="24" height="24" viewBox="0 0 24 24" fill="none" xmlns="http://www.w3.org/2000/svg">
<path d="M23.9061 21.7335L22.2585 16.9385C23.0509 15.3366 23.4701 13.5511 23.4729 11.7545C23.4776 8.66065 22.2806 5.73527 20.1021 3.51729C17.9233 1.29893 15.0199 0.0502763 11.9268 0.00119814C10.3063 -0.0248175 8.73386 0.273776 7.25074 0.887698C5.82025 1.47982 4.53743 2.33759 3.43793 3.43713C2.33838 4.53663 1.48061 5.81946 0.888488 7.24995C0.274473 8.73307 -0.0237931 10.3063 0.00189437 11.9261C0.0508787 15.0191 1.29958 17.9225 3.51789 20.1013C5.73152 22.2755 8.64939 23.4722 11.7366 23.4722C11.7426 23.4722 11.749 23.4722 11.7551 23.4722C13.5517 23.4694 15.3372 23.0503 16.9391 22.2578L21.7341 23.9054C21.9185 23.9688 22.1075 23.9996 22.2945 23.9996C22.7386 23.9996 23.1706 23.8251 23.4982 23.4975C23.9637 23.0321 24.12 22.3561 23.9061 21.7335ZM11.6211 18.4263C11.2222 18.4263 10.9269 18.1003 10.9096 17.7149C10.8924 17.3306 11.2489 17.0034 11.6211 17.0034C12.0199 17.0034 12.3153 17.3294 12.3326 17.7149C12.3498 18.0991 11.9932 18.4263 11.6211 18.4263ZM12.3326 12.992V15.2542C12.3326 15.6471 12.014 15.9656 11.6211 15.9656C11.2282 15.9656 10.9096 15.6471 10.9096 15.2542V12.3524C10.9096 11.9595 11.2282 11.6409 11.6211 11.6409C12.7883 11.6409 13.7379 10.6913 13.7379 9.52409C13.7379 8.3569 12.7883 7.40726 11.6211 7.40726C10.4539 7.40726 9.50425 8.3569 9.50425 9.52409C9.50425 9.91699 9.18569 10.2356 8.79279 10.2356C8.39988 10.2356 8.08132 9.91699 8.08132 9.52409C8.08132 7.57231 9.66925 5.98432 11.6211 5.98432C13.5729 5.98432 15.1608 7.57226 15.1608 9.52409C15.1608 11.2323 13.9446 12.6618 12.3326 12.992Z" fill="#00AFE8"/>
</svg>
