<svg width="24" height="24" viewBox="0 0 24 24" fill="none" xmlns="http://www.w3.org/2000/svg">
<g clip-path="url(#clip0)">
<path d="M21 22.271V2.706C21 1.214 19.792 0 18.309 0H5.691C4.208 0 3 1.214 3 2.706V22.27C3 22.92 3.358 23.509 3.934 23.807C4.507 24.102 5.189 24.054 5.715 23.68L11.875 19.297C11.949 19.244 12.05 19.244 12.125 19.297L18.285 23.68C18.582 23.891 18.93 23.998 19.279 23.998C19.548 23.998 19.817 23.935 20.066 23.807C20.642 23.51 21 22.921 21 22.271ZM19.5 22.271C19.5 22.393 19.423 22.452 19.378 22.475C19.325 22.501 19.244 22.522 19.154 22.458L12.994 18.075C12.399 17.652 11.6 17.652 11.006 18.075L4.846 22.458C4.757 22.521 4.675 22.501 4.622 22.475C4.577 22.451 4.5 22.393 4.5 22.271V2.706C4.5 2.041 5.035 1.5 5.691 1.5H18.308C18.965 1.5 19.499 2.041 19.499 2.706V22.271H19.5Z" fill="#00AFE8"/>
<path fill-rule="evenodd" clip-rule="evenodd" d="M14.0221 7.88633L12.7185 5.1367C12.5828 4.84455 12.2382 4.71281 11.9461 4.86102C11.8292 4.92033 11.7366 5.01804 11.6815 5.13673L10.3779 7.88633L7.48419 8.32198L7.48094 8.32252C7.25888 8.35971 7.08319 8.52506 7.02175 8.73953L7.02061 8.7439C6.96743 8.94673 7.01839 9.16557 7.15928 9.32147L9.2685 11.4735L8.77858 14.4952L8.77829 14.4971C8.74514 14.7152 8.82842 14.9381 9.00134 15.0763C9.17588 15.2153 9.41336 15.2398 9.61184 15.1367L12.2 13.696L14.8077 15.1475L15.0174 15.1964L15.0314 15.1976C15.1688 15.2098 15.3033 15.1631 15.4047 15.0714C15.5736 14.9329 15.6545 14.7127 15.6217 14.4971L15.1315 11.4735L17.2352 9.32737L17.2406 9.32136C17.3815 9.16549 17.4327 8.94674 17.3794 8.74384L17.3782 8.73953C17.3168 8.52513 17.1411 8.35969 16.9191 8.3225L14.0221 7.88633ZM11.292 8.68722L12.2 6.75249L13.1061 8.6833L13.108 8.6872C13.1913 8.85515 13.3468 8.97698 13.5321 9.01106L15.6061 9.32613L14.0951 10.8587L14.09 10.8648C13.9759 11.0007 13.9262 11.1803 13.9514 11.3557L14.2992 13.5081L12.4646 12.5062L12.4577 12.5027C12.2949 12.4218 12.1051 12.4217 11.9422 12.5026L10.1008 13.5081L10.4481 11.3591L10.4486 11.3557C10.4738 11.1802 10.4241 11.0007 10.3101 10.8648L10.3049 10.8587L8.79392 9.32613L10.8617 9.0121L10.8679 9.01097C11.0531 8.97688 11.2087 8.85519 11.292 8.68722Z" fill="#00AFE8"/>
</g>
<defs>
<clipPath id="clip0">
<rect width="24" height="24" fill="white"/>
</clipPath>
</defs>
</svg>
