<svg width="24" height="24" viewBox="0 0 24 24" fill="none" xmlns="http://www.w3.org/2000/svg">
<g clip-path="url(#clip0)">
<path d="M22.3846 3.46152H1.61541C0.724641 3.46152 0 4.1862 0 5.07692V18.9231C0 19.8138 0.724641 20.5385 1.61541 20.5385H22.3846C23.2754 20.5385 24 19.8139 24 18.9231V5.07692C24 4.1862 23.2754 3.46152 22.3846 3.46152ZM22.6154 18.923C22.6154 19.0503 22.5119 19.1538 22.3846 19.1538H1.61541C1.48814 19.1538 1.38464 19.0503 1.38464 18.923V11.7692H22.6154V18.923ZM22.6154 10.3846H1.38459V8.07688H22.6154V10.3846H22.6154ZM22.6154 6.69228H1.38459V5.07688C1.38459 4.94961 1.48809 4.84611 1.61536 4.84611H22.3846C22.5119 4.84611 22.6154 4.94961 22.6154 5.07688V6.69228H22.6154Z" fill="#00ABE5"/>
<path d="M20.3077 15.9231H16.6154C16.233 15.9231 15.9231 16.2331 15.9231 16.6154C15.9231 16.9977 16.2331 17.3077 16.6154 17.3077H20.3077C20.69 17.3077 21 16.9977 21 16.6154C21 16.2331 20.69 15.9231 20.3077 15.9231Z" fill="#00ABE5"/>
</g>
<defs>
<clipPath id="clip0">
<rect width="24" height="24" fill="white"/>
</clipPath>
</defs>
</svg>
