<svg width="24" height="22" viewBox="0 0 24 22" fill="none" xmlns="http://www.w3.org/2000/svg">
<path d="M21.0399 0.220932H2.96013C1.33056 0.220932 0 1.54651 0 3.18106V14.6478C0 16.2774 1.32558 17.608 2.96013 17.608H11.3272V20.4336H7.15615C6.78239 20.4336 6.48339 20.7326 6.48339 21.1063C6.48339 21.4801 6.78239 21.7791 7.15615 21.7791H16.8439C17.2176 21.7791 17.5166 21.4801 17.5166 21.1063C17.5166 20.7326 17.2176 20.4336 16.8439 20.4336H12.6728V17.608H21.0399C22.6694 17.608 24 16.2824 24 14.6478V3.18106C24 1.54651 22.6744 0.220932 21.0399 0.220932ZM2.96013 1.56645H21.0448C21.9319 1.56645 22.6595 2.28904 22.6595 3.18106V12.7641H1.34551V3.18106C1.34551 2.28904 2.06811 1.56645 2.96013 1.56645ZM21.0399 16.2625H2.96013C2.07309 16.2625 1.34551 15.5399 1.34551 14.6478V14.1096H22.6545V14.6478C22.6545 15.5349 21.9319 16.2625 21.0399 16.2625Z" fill="#00ABE5"/>
</svg>
