<svg width="24" height="24" viewBox="0 0 24 24" fill="none" xmlns="http://www.w3.org/2000/svg">
<path d="M23.7489 11.3934L22.0354 9.67994L12.6065 0.250981C12.2718 -0.0836705 11.7291 -0.0836705 11.3944 0.250981L1.96541 9.67994L0.251071 11.3943C-0.0778048 11.7349 -0.0684127 12.2775 0.272115 12.6064C0.604306 12.9272 1.13092 12.9272 1.46311 12.6064L1.71338 12.3543V23.1428C1.71338 23.6162 2.09716 24 2.57058 24H21.4286C21.902 24 22.2858 23.6162 22.2858 23.1428V12.3543L22.5369 12.6055C22.8774 12.9344 23.42 12.925 23.7489 12.5845C24.0698 12.2523 24.0698 11.7256 23.7489 11.3934ZM14.5711 22.2857H9.42805V15.4282H14.5711V22.2857ZM20.5714 22.2857H16.2855V14.571C16.2855 14.0976 15.9017 13.7138 15.4283 13.7138H8.57086C8.09743 13.7138 7.71366 14.0976 7.71366 14.571V22.2857H3.42778V10.64L11.9995 2.06819L20.5714 10.64V22.2857Z" fill="#00ABE5"/>
</svg>
