<svg width="24" height="25" viewBox="0 0 24 25" fill="none" xmlns="http://www.w3.org/2000/svg">
<path d="M8.99979 11.4433C6.24285 11.4433 3.99988 8.88003 3.99988 5.72916C3.99988 2.57828 6.24285 0.014801 8.99979 0.014801C11.7567 0.014801 13.9997 2.57828 13.9997 5.72916C13.9997 8.88003 11.7567 11.4433 8.99979 11.4433V11.4433ZM8.99979 1.72909C7.06991 1.72909 5.49983 3.52331 5.49983 5.72916C5.49983 7.93479 7.06991 9.72902 8.99979 9.72902C10.9297 9.72902 12.4997 7.93479 12.4997 5.72916C12.4997 3.52331 10.9297 1.72909 8.99979 1.72909V1.72909Z" fill="#00ABE5"/>
<path d="M17.2495 24.0148H0.749977C0.335988 24.0148 0 23.6308 0 23.1577V19.1576C0 16.1645 2.13092 13.7291 4.74979 13.7291H13.2497C15.8685 13.7291 17.9994 16.1645 17.9994 19.1576V23.1577C17.9994 23.6308 17.6635 24.0148 17.2495 24.0148V24.0148ZM1.49995 22.3005H16.4995V19.1576C16.4995 17.1097 15.0415 15.4434 13.2497 15.4434H4.74979C2.95798 15.4434 1.49995 17.1097 1.49995 19.1576V22.3005Z" fill="#00ABE5"/>
<path d="M23.2493 11.7291H14.7496C14.3356 11.7291 13.9996 11.3451 13.9996 10.872C13.9996 10.3989 14.3356 10.0149 14.7496 10.0149H23.2493C23.6633 10.0149 23.9993 10.3989 23.9993 10.872C23.9993 11.3451 23.6633 11.7291 23.2493 11.7291Z" fill="#00ABE5"/>
<path d="M19.2494 16.3005C19.0574 16.3005 18.8655 16.217 18.7194 16.0492C18.4264 15.7141 18.4264 15.1713 18.7194 14.8365L22.1893 10.8707L18.7194 6.90499C18.4264 6.57017 18.4264 6.02734 18.7194 5.69252C19.0123 5.3577 19.4873 5.3577 19.7804 5.69252L23.7802 10.2639C24.0732 10.5987 24.0732 11.1417 23.7802 11.4766L19.7804 16.0479C19.6334 16.217 19.4413 16.3005 19.2494 16.3005V16.3005Z" fill="#00ABE5"/>
</svg>
