<svg width="24" height="24" viewBox="0 0 24 24" fill="none" xmlns="http://www.w3.org/2000/svg">
<g clip-path="url(#clip0)">
<path d="M7.20484 15.8022H20.4289C21.9283 15.8022 23.1516 14.5789 23.1516 13.0795V5.5156C23.1516 5.51067 23.1516 5.5008 23.1516 5.49587C23.1516 5.48107 23.1516 5.47121 23.1516 5.45641C23.1516 5.44655 23.1516 5.43668 23.1467 5.42682C23.1467 5.41695 23.1417 5.40215 23.1417 5.39229C23.1417 5.38242 23.1368 5.37256 23.1368 5.36269C23.1319 5.35283 23.1319 5.34296 23.1269 5.32817C23.122 5.3183 23.122 5.30844 23.1171 5.29857C23.1121 5.28871 23.1121 5.27884 23.1072 5.26898C23.1023 5.25911 23.0973 5.24925 23.0924 5.23445C23.0875 5.22458 23.0825 5.21472 23.0776 5.20979C23.0727 5.19992 23.0677 5.19006 23.0628 5.18019C23.0579 5.17033 23.0529 5.16539 23.048 5.15553C23.0431 5.14566 23.0332 5.1358 23.0283 5.12593C23.0234 5.11607 23.0184 5.11114 23.0086 5.10127C23.0036 5.09141 22.9938 5.08647 22.9888 5.07661C22.9839 5.06674 22.974 5.06181 22.9691 5.05195C22.9642 5.04208 22.9543 5.03715 22.9494 5.03222C22.9395 5.02235 22.9346 5.01742 22.9247 5.00756C22.9148 5.00262 22.9099 4.99276 22.9 4.98782C22.8902 4.98289 22.8803 4.97303 22.8704 4.96809C22.8606 4.96316 22.8556 4.95823 22.8458 4.9533C22.8359 4.94836 22.8261 4.94343 22.8162 4.93357C22.8063 4.92864 22.7965 4.9237 22.7866 4.91877C22.7767 4.91384 22.7669 4.9089 22.757 4.90397C22.7471 4.89904 22.7373 4.89411 22.7274 4.88918C22.7175 4.88424 22.7077 4.88424 22.6978 4.87931C22.6879 4.87438 22.6731 4.86944 22.6633 4.86944C22.6534 4.86944 22.6435 4.86451 22.6386 4.86451C22.6238 4.85958 22.614 4.85958 22.5992 4.85958C22.5942 4.85958 22.5893 4.85465 22.5794 4.85465L5.8188 4.54131V2.2033C5.8188 2.17864 5.8188 2.15398 5.81387 2.13425C5.81387 2.12932 5.81387 2.12438 5.80894 2.11452C5.80894 2.09972 5.80401 2.08492 5.80401 2.07013C5.79907 2.05533 5.79907 2.04546 5.79414 2.03067C5.79414 2.0208 5.78921 2.01587 5.78921 2.006C5.78428 1.99121 5.77934 1.97641 5.77441 1.96161C5.77441 1.95668 5.76948 1.94681 5.76948 1.94188C5.76455 1.92708 5.75961 1.91722 5.74975 1.90242C5.74482 1.89749 5.74482 1.88762 5.73988 1.88269C5.73495 1.87283 5.73002 1.86296 5.72015 1.8531C5.71522 1.84323 5.71029 1.8383 5.70536 1.82843C5.70042 1.81857 5.69549 1.81364 5.69056 1.80377C5.68563 1.79391 5.67576 1.78404 5.67083 1.77418C5.6659 1.76924 5.66096 1.76431 5.65603 1.75938C5.64617 1.74951 5.6363 1.73965 5.62644 1.72978C5.6215 1.72485 5.61657 1.71992 5.61164 1.71499C5.60177 1.70512 5.59191 1.69526 5.57711 1.68539C5.57218 1.68046 5.56231 1.67553 5.55738 1.67059C5.54752 1.66073 5.53765 1.6558 5.52779 1.64593C5.51299 1.63607 5.49819 1.6262 5.48833 1.62127C5.48339 1.61634 5.47846 1.61634 5.47353 1.6114C5.4538 1.60154 5.42914 1.59167 5.40941 1.58181L1.77416 0.0527342C1.43381 -0.0903082 1.04415 0.0675317 0.901105 0.407874C0.758062 0.748216 0.915902 1.13788 1.25624 1.28093L4.4821 2.64229V5.66098V6.13944V9.80921V13.0893V17.2326C4.4821 18.6137 5.51792 19.7581 6.85463 19.9307C6.61294 20.3352 6.46989 20.8087 6.46989 21.3118C6.46989 22.7965 7.67835 24 9.1581 24C10.6379 24 11.8463 22.7915 11.8463 21.3118C11.8463 20.8185 11.7131 20.35 11.4764 19.9554H17.4644C17.2277 20.3549 17.0945 20.8185 17.0945 21.3118C17.0945 22.7965 18.303 24 19.7827 24C21.2625 24 22.4709 22.7915 22.4709 21.3118C22.4709 19.832 21.2625 18.6236 19.7827 18.6236H7.20484C6.43537 18.6236 5.81387 17.9972 5.81387 17.2326V15.4273C6.21834 15.6641 6.69679 15.8022 7.20484 15.8022ZM10.5195 21.3069C10.5195 22.0566 9.90784 22.6633 9.16304 22.6633C8.41823 22.6633 7.8066 22.0517 7.8066 21.3069C7.8066 20.5621 8.41823 19.9504 9.16304 19.9504C9.90784 19.9504 10.5195 20.5571 10.5195 21.3069ZM21.1441 21.3069C21.1441 22.0566 20.5324 22.6633 19.7876 22.6633C19.0428 22.6633 18.4312 22.0517 18.4312 21.3069C18.4312 20.5621 19.0428 19.9504 19.7876 19.9504C20.5324 19.9504 21.1441 20.5571 21.1441 21.3069ZM20.4289 14.4704H7.20484C6.43537 14.4704 5.81387 13.844 5.81387 13.0795V9.79935V6.12957V5.88295L21.8198 6.08777V13.0745C21.8198 13.8489 21.1934 14.4704 20.4289 14.4704Z" fill="#00ABE5"/>
</g>
<defs>
<clipPath id="clip0">
<rect width="24" height="24" fill="white"/>
</clipPath>
</defs>
</svg>
