<svg width="24" height="24" viewBox="0 0 24 24" fill="none" xmlns="http://www.w3.org/2000/svg">
<g clip-path="url(#clip0)">
<path d="M22.4041 12.3109C22.3075 12.1133 22.3075 11.8867 22.4041 11.6892L23.2992 9.85799C23.7976 8.83842 23.4027 7.62319 22.4003 7.0913L20.5998 6.136C20.4056 6.03296 20.2724 5.84959 20.2344 5.63308L19.8822 3.62548C19.6862 2.5077 18.6522 1.75658 17.5288 1.91553L15.5107 2.201C15.2928 2.23175 15.0774 2.16172 14.9194 2.00886L13.4546 0.591743C12.6389 -0.197346 11.3611 -0.197393 10.5455 0.591743L9.08053 2.009C8.92247 2.16191 8.70708 2.2318 8.4893 2.20114L6.4712 1.91567C5.34738 1.75663 4.31379 2.50784 4.11772 3.62562L3.76559 5.63312C3.72758 5.84969 3.59441 6.03301 3.40021 6.13609L1.59975 7.0914C0.597284 7.62324 0.202412 8.83856 0.700784 9.85813L1.59586 11.6892C1.69242 11.8868 1.69242 12.1134 1.59586 12.3109L0.700737 14.1421C0.202365 15.1616 0.597237 16.3769 1.5997 16.9088L3.40016 17.8641C3.59441 17.9671 3.72758 18.1505 3.76559 18.367L4.11772 20.3746C4.29622 21.3921 5.16874 22.1058 6.17153 22.1057C6.2703 22.1057 6.37052 22.0987 6.47125 22.0845L8.48935 21.799C8.70699 21.7681 8.92252 21.8383 9.08058 21.9911L10.5455 23.4083C10.9534 23.8029 11.4766 24.0001 12 24.0001C12.5232 24 13.0468 23.8028 13.4545 23.4083L14.9194 21.9911C15.0775 21.8383 15.2929 21.7684 15.5107 21.799L17.5288 22.0845C18.6527 22.2435 19.6862 21.4923 19.8822 20.3745L20.2344 18.367C20.2724 18.1505 20.4056 17.9671 20.5998 17.8641L22.4003 16.9088C23.4027 16.3769 23.7976 15.1616 23.2992 14.142L22.4041 12.3109ZM21.7515 15.6859L19.951 16.6412C19.377 16.9459 18.9833 17.4877 18.871 18.1278L18.5189 20.1353C18.4526 20.5135 18.1029 20.7675 17.7226 20.7139L15.7045 20.4284C15.0609 20.3372 14.4241 20.5444 13.957 20.9962L12.4921 22.4133C12.2162 22.6802 11.7838 22.6802 11.5078 22.4133L10.043 20.9961C9.64818 20.6142 9.13209 20.4073 8.59332 20.4073C8.4946 20.4073 8.39508 20.4142 8.29543 20.4283L6.27733 20.7138C5.89736 20.7675 5.54744 20.5135 5.48107 20.1353L5.1289 18.1277C5.01659 17.4876 4.62293 16.9457 4.04886 16.6412L2.2484 15.6859C1.90921 15.5059 1.77562 15.0948 1.94423 14.7498L2.83935 12.9187C3.12472 12.3348 3.12472 11.6652 2.83935 11.0813L1.94423 9.25012C1.77562 8.90517 1.90921 8.49403 2.2484 8.31408L4.04886 7.35877C4.62289 7.05413 5.01659 6.51235 5.12885 5.87223L5.48097 3.86468C5.54735 3.48649 5.89694 3.23243 6.27724 3.28615L8.29533 3.57162C8.93869 3.6627 9.57576 3.45565 10.0429 3.00382L11.5078 1.58671C11.7837 1.3198 12.216 1.3198 12.492 1.58671L13.9569 3.00382C14.424 3.4557 15.061 3.6627 15.7044 3.57162L17.7225 3.28615C18.1026 3.23239 18.4525 3.48649 18.5188 3.86468L18.8709 5.87228C18.9832 6.5124 19.3769 7.05423 19.951 7.35877L21.7514 8.31408C22.0906 8.49403 22.2242 8.90517 22.0556 9.25012L21.1605 11.0812C20.8751 11.6651 20.8751 12.3348 21.1605 12.9186L22.0556 14.7497C22.2243 15.0948 22.0907 15.506 21.7515 15.6859Z" fill="#00ABE5"/>
<path d="M17.0571 6.9429C16.7868 6.67262 16.3485 6.67262 16.0783 6.9429L6.94288 16.0783C6.6726 16.3486 6.6726 16.7868 6.94288 17.0571C7.07802 17.1922 7.25516 17.2598 7.43226 17.2598C7.60935 17.2598 7.78654 17.1923 7.92163 17.0571L17.057 7.92174C17.3274 7.65141 17.3274 7.21322 17.0571 6.9429Z" fill="#00ABE5"/>
<path d="M9.23154 5.77103C7.83223 5.77103 6.69379 6.90947 6.69379 8.30878C6.69379 9.70808 7.83223 10.8465 9.23154 10.8465C10.6308 10.8465 11.7693 9.70808 11.7693 8.30878C11.7693 6.90947 10.6308 5.77103 9.23154 5.77103ZM9.23154 9.46227C8.59549 9.46227 8.07804 8.94482 8.07804 8.30873C8.07804 7.67269 8.59549 7.15524 9.23154 7.15524C9.86758 7.15524 10.3851 7.67269 10.3851 8.30873C10.385 8.94482 9.86758 9.46227 9.23154 9.46227Z" fill="#00ABE5"/>
<path d="M14.7684 13.1535C13.3691 13.1535 12.2307 14.292 12.2307 15.6913C12.2307 17.0906 13.3691 18.229 14.7684 18.229C16.1677 18.229 17.3062 17.0906 17.3062 15.6913C17.3062 14.292 16.1677 13.1535 14.7684 13.1535ZM14.7684 16.8448C14.1324 16.8448 13.6149 16.3273 13.6149 15.6913C13.6149 15.0552 14.1323 14.5378 14.7684 14.5378C15.4044 14.5378 15.9219 15.0552 15.9219 15.6913C15.9219 16.3273 15.4044 16.8448 14.7684 16.8448Z" fill="#00ABE5"/>
</g>
<defs>
<clipPath id="clip0">
<rect width="24" height="24" fill="white"/>
</clipPath>
</defs>
</svg>
